<svg width="20" height="20" viewBox="0 0 20 20" fill="none" xmlns="http://www.w3.org/2000/svg">
<circle cx="10" cy="10" r="9.5" stroke="#FFB114"/>
<circle cx="10" cy="10" r="9" fill="#F4F4F4"/>
<path d="M12.5173 12.5171H6V6H12.5173V12.5171Z" stroke="#FFB114" stroke-linecap="round" stroke-linejoin="round"/>
<path d="M8.79298 13.9133C8.79298 14.5132 8.30668 14.9995 7.70679 14.9995C7.10691 14.9995 6.62061 14.5132 6.62061 13.9133C6.62061 13.3135 7.10691 12.8271 7.70679 12.8271C8.30668 12.8271 8.79298 13.3135 8.79298 13.9133Z" stroke="#FFB114" stroke-linecap="round" stroke-linejoin="round"/>
<path d="M14.3794 13.9133C14.3794 14.5132 13.8931 14.9995 13.2932 14.9995C12.6933 14.9995 12.207 14.5132 12.207 13.9133C12.207 13.3135 12.6933 12.8271 13.2932 12.8271C13.8931 12.8271 14.3794 13.3135 14.3794 13.9133Z" stroke="#FFB114" stroke-linecap="round" stroke-linejoin="round"/>
<path d="M15 12.5173H12.5171V8.48291H13.1379C14.1663 8.48291 15 9.31657 15 10.3449V12.5173Z" stroke="#FFB114" stroke-linecap="round" stroke-linejoin="round"/>
</svg>
